<?xml version="1.0" encoding="UTF-8" standalone="no"?>
<!-- Uploaded to: SVG Repo, www.svgrepo.com, Generator: SVG Repo Mixer Tools -->

<svg
   height="800"
   width="800"
   version="1.1"
   id="_x32_"
   viewBox="0 0 512 512"
   xml:space="preserve"
   xmlns="http://www.w3.org/2000/svg"
   xmlns:svg="http://www.w3.org/2000/svg"><defs
   id="defs1" />
<style
   type="text/css"
   id="style1">
	.st0{fill:#000000;}
</style>
<g
   id="g1">
	<path
   class="st0"
   d="M 435.209,96.685 415.582,95.608 C 362.353,92.651 316.212,72.218 288.971,39.509 L 255.999,0 223.019,39.509 C 195.779,72.218 149.628,92.651 96.408,95.608 l -40.497,2.24 v 187.094 c 0,26.61 8.059,51.698 20.878,74.642 44.26,79.84 144.978,134.496 159.311,142.02 L 255.999,512 275.89,501.604 C 294.344,491.926 456.088,403.94 456.088,284.942 V 97.848 Z M 98.737,261.106 c 0,-46.326 0,-122.674 0,-122.674 64.333,-3.579 121.509,-28.578 157.263,-71.5 v 194.174 h 157.247 v 23.836 C 413.247,381.443 256,463.61 256,463.61 V 261.106 Z"
   id="path1"
   style="fill:#f9f9f9" />
</g>
</svg>
